<svg xmlns="http://www.w3.org/2000/svg" width="317.419" height="100" viewBox="0 0 317.419 100">
  <path id="Union_18" data-name="Union 18" d="M100,110H0V10H100V110h0ZM52.741,38.173v58.2H72.109V81.7H67.266V38.173h9.685V52.845H91.477V23.5H52.741Zm-24.373,58.2H47.737V23.5H9V52.845H23.527V38.173h9.684V81.7H28.368ZM286.511,76.88q-5.018-5.035-5.018-14.044,0-9.339,5.42-14.8a18.057,18.057,0,0,1,13.331-5.457q8.2,0,12.689,4.871t4.486,13.22v4.871H292.956q.586,8.166,10.291,8.167a20.083,20.083,0,0,0,10.876-2.93v8.35q-5.2,2.782-13.514,2.783Q291.528,81.915,286.511,76.88Zm8.843-24.187a10.47,10.47,0,0,0-2.471,5.749h13.806q0-8.057-6.519-8.057A6.226,6.226,0,0,0,295.355,52.692Zm-83.9,23.968q-5.365-5.254-5.365-14.264,0-9.3,5.566-14.557t15.052-5.255q9.338,0,14.648,5.255t5.31,13.9q0,9.338-5.475,14.758t-15,5.42Q216.822,81.915,211.456,76.66Zm8.662-22.394q-2.271,2.82-2.271,7.984,0,10.8,8.716,10.8,8.313,0,8.313-11.1,0-10.51-8.386-10.51A7.718,7.718,0,0,0,220.118,54.266ZM182.141,69.208V52.033h-6.079V43.5h6.079V35.407l11.535-3.3V43.5H202.1v8.533h-8.423V67.194q0,5.859,4.651,5.859a7.839,7.839,0,0,0,3.772-1.062v8.57q-2.564,1.354-7.727,1.354Q182.141,81.915,182.141,69.208Zm-29.187,0V52.033h-6.079V43.5h6.079V35.407l11.535-3.3V43.5h8.423v8.533h-8.423V67.194q0,5.859,4.651,5.859a7.839,7.839,0,0,0,3.772-1.062v8.57q-2.564,1.354-7.727,1.354Q152.954,81.915,152.954,69.208Zm-48.669-3.076V43.5H115.82V65.106q0,7.947,6.3,7.947a6.231,6.231,0,0,0,4.981-2.179,8.787,8.787,0,0,0,1.868-5.914V43.5H140.5V81H128.967V75.287h-.183q-4.285,6.628-11.462,6.628Q104.284,81.915,104.285,66.132ZM254.174,81V43.5h11.573v6.958h.146q2.747-7.617,9.888-7.617a7.457,7.457,0,0,1,2.856.439V53.937a10.036,10.036,0,0,0-4.87-1.135,7.016,7.016,0,0,0-5.9,2.765,12.058,12.058,0,0,0-2.124,7.526V81Z" transform="translate(0 -10)" fill="#00bbf0"/>
</svg>
